/* XPM */
static char *d4123455947d4f8f95b255672926fe88Jub0cQvRHUiGq9RO[] = {
/* columns rows colors chars-per-pixel */
"50 50 133 2 ",
"   c #000D0E",
".  c #00100F",
"X  c #000E11",
"o  c #001112",
"O  c #011917",
"+  c #02171B",
"@  c #011B1C",
"#  c #02211D",
"$  c #021C20",
"%  c #022321",
"&  c #032C26",
"*  c #03242C",
"=  c #042C29",
"-  c #04332B",
";  c #05382F",
":  c #022730",
">  c #042D35",
",  c #042F38",
"<  c #043334",
"1  c #043C32",
"2  c #04323C",
"3  c #054336",
"4  c #06453B",
"5  c #064B3E",
"6  c #084C3F",
"7  c #063745",
"8  c #073D40",
"9  c #053F41",
"0  c #053944",
"q  c #043845",
"w  c #053946",
"e  c #073846",
"r  c #053B47",
"t  c #063A47",
"y  c #053A45",
"u  c #083846",
"i  c #063C48",
"p  c #073C4A",
"a  c #053F4B",
"s  c #063F4A",
"d  c #063E4B",
"f  c #053F4D",
"g  c #073F4C",
"h  c #063E4D",
"j  c #073F4E",
"k  c #063E4C",
"l  c #083D4B",
"z  c #083D4B",
"x  c #063F50",
"c  c #073F50",
"v  c #063F50",
"b  c #064743",
"n  c #054745",
"m  c #074746",
"M  c #074746",
"N  c #084546",
"B  c #074B40",
"V  c #064C41",
"C  c #064E40",
"Z  c #074E40",
"A  c #074F41",
"S  c #074D42",
"D  c #074D43",
"F  c #064E42",
"G  c #064E43",
"H  c #074F43",
"J  c #074945",
"K  c #074947",
"L  c #054A47",
"P  c #064B46",
"I  c #064D45",
"U  c #074D45",
"Y  c #074F44",
"T  c #074C47",
"R  c #074E43",
"E  c #094D40",
"W  c #084F41",
"Q  c #084E43",
"!  c #084847",
"~  c #084A46",
"^  c #094B47",
"/  c #094C45",
"(  c #084D43",
")  c #064149",
"_  c #044348",
"`  c #05414B",
"'  c #06424A",
"]  c #07434B",
"[  c #054449",
"{  c #064648",
"}  c #064749",
"|  c #074749",
" . c #05444B",
".. c #06454A",
"X. c #05414C",
"o. c #06404C",
"O. c #07414C",
"+. c #07414D",
"@. c #06424C",
"#. c #06424D",
"$. c #07434D",
"%. c #05404E",
"&. c #06404E",
"*. c #06414F",
"=. c #07414F",
"-. c #05444D",
";. c #06414D",
":. c #08434B",
">. c #08454A",
",. c #08404D",
"<. c #08404F",
"1. c #08424E",
"2. c #08434B",
"3. c #074948",
"4. c #064B48",
"5. c #064D49",
"6. c #064A48",
"7. c #084A48",
"8. c #0A4A49",
"9. c #084A48",
"0. c #075142",
"q. c #065043",
"w. c #075142",
"e. c #085042",
"r. c #085044",
"t. c #085045",
"y. c #085043",
"u. c #054050",
"i. c #074051",
"p. c #064151",
"a. c #074250",
"s. c #074252",
"d. c #074250",
/* pixels */
"                                                                      X X                           ",
"* * * * * * * + . @ & * * $ * * * * +   $ & * * * * * * * * * o . & % * $ * * * * * * $   # & * $ * ",
"h &.&.&.&.&.h 2   ; r.&.a.h &.&.&.&.2   ; F &.f d &.&.&.&.a.d + @ 6 6.&.<.a.a.&.h x h 2 o ; q.&.a.&.",
"h &.&.&.&.&.a.2 . ; q.&.h a.&.&.&.&.2 X ; F &.h h h &.&.&.&.&.$ @ 6 } h <.<.&.&.&.a.a., . < W &.h &.",
"} } } $.&.&.&.2 . - 0.m }  .}  .&.a.2 o 1 Q 6.} } } } } &.h &.$ O 6 J } } 2. .} :.&.&.2 o ; F }  .} ",
"B W F _ &.&.a.2 X ; F F F 6 W J h a.2 o ; F 6 0.6 6 F F  .h g $ @ 6 0.F 6 W F W m &.a.2 o ; 0.0.W W ",
"@ # # $ $ $ $ + X O # # # @ # @ @ $ + X O # # # @ # # # $ $ + o o # # # @ # # # @ $ $ +   @ # @ @ @ ",
"X o @ + + @ + @ @ + + + o X @ @ + + $ + + + + + +   o @ + + $ + + @ + + + o   @ @ + + + @ + @ + @ + ",
"  & B z h d h d h d d  .* o 3 ! d d z h d h h a t o & 6 d d d h  .z d d d * o 3 b d d  .d d d &.&.d ",
"  & W :.h  .h &.&.&.&.h * o 3 8.&.h &.h &.h h a.t o & Q  .h &.&.&.&.h &.&.* o 3 ! d &.&.&.&.&.&.&.&.",
"  & Y } &. .} $.&.&.&.a.: o 4 Y &.}  .h &. .h a.t o = F >.&. .&.&.&.&.&.a.: o 3 Y &.&.&. .&.$.&.&.&.",
"  & W Y Y Y q.0.F } &.&.* o 4 r.Q Y F Y Y Y a.a.t o & F 0.q.W W q.F } &.&.* o 5 r.F Y W e.F ^ >.&.&.",
"  o = = & = & & & = * : + o & = = = & - = = = * * o @ = = = & & = = & * * @   & = = & & & = = * * * ",
"o o o o o o     o o o o o o o o o o X     o o X . o o o o o o .   o . o o o o o o o o o   o o o o o ",
"t 7 7 7 t 0 + O 3 2 i t t t 7 7 0 t >   - 4 t 7 u 7 7 7 t t 0 + O 3 8 7 7 7 7 t 7 t d >   - 4 t t 7 ",
"a.c &.a.&.&.$ @ F } &.&.&.&.h &.&.&.2 X ; 0.&.&.&.h &.&.&.&.&.$ @ F } &.&.x &.&.&.&.&.2   ; F &.a.a.",
"&.&.&.&.&.&.@ O 6 } &.&.:.h &.x &.a.2   ; W h &.g :.<.&.a.&.&.$ O 6 J h &.&.h &.&.&.&.2 . ; F &.&.a.",
"Q Y 5.} a.&.$ @ F F Y Y 5.Y Q 6.&.a.2 o ; 0.Q Y ! Y Y Y &.a.&.$ @ 6 q.Y Y Y Y F 9.&.a.2 . ; 0.Y Y Y ",
"1 1 1 2 2 2 + O ; 1 1 1 1 1 1 1 2 2 :   = 1 1 1 1 1 1 1 2 2 2 + O 1 1 1 1 1 1 1 1 2 2 :   = 1 1 1 1 ",
"  o .   o X X   o .   X o     o o X o     o . X o   . . . . X     . o X o X . o X . o     o . o . o ",
"  # ; < , , , , < , , , *   - < , > , , > , 2 < > o @ 1 < 2 > 2 , , , , , % X - < , , 2 > 2 2 > , 2 ",
"  = Y X.h a.a.a.h a.a.a.: o 3 Y a.a.a.a.a.a.&.&.t o = q.&.&.&.&.X.u.u.a.s.* o 4 6.&.a.<.x :.h a.&.&.",
"X & F $.h a.h a.&.&.h a.* o 3 6.h &.&.&.h &.&.&.t o & F $.&.&.&.X.a.&.a.a.* o 6 9.&.a.h h &.&.h &.&.",
"  & 0.J J 6.6.J J $.&.&.: o 4 Y 6.6.J 6.6.} &.&.t o = e.^ J J J J J &.a.a.* o 3 q.9.J 6.9.! 6.a.&.&.",
"  % 5 3 6 5 3 6 6 9 t t * o 1 6 4 6 4 6 6 4 t d 7 X % 5 3 6 6 3 5 3 N t t * o 1 3 5 5 6 3 5 b t t t ",
"  X o o o o o o o o o o o   o o o o o o o o o o o X o o o o o o o o o o o X   o o o o o o o o X o o ",
"* * * * * * + o & % * * * * * * * * $   # & * * * * * * * * * o o & * * * * * * * * * $ o # & * * * ",
"&.&.d &.&.&.@ @ 6 } h h h &.h &.&.a.2   1 Y &.h h h &.&.h a.:.$ @ 6 m a.&.&.h h &.&.&.2   1 Q  .&.&.",
"&.&.c g &.&.@ @ 6 } h h x h &.&.&.a.2 o ; 0.$.x a.h x h x &.&.$ # 6 J h &.&.h h &.&.&.2 . ; Y &.h h ",
"} $.>.:.&.&.@ @ 6 Y } } >.} }  .f &.2 o ; 0.} } >.>.} } &.&.&.$ O 6 B } } $.} } } &.:.2 . ; 0.} } } ",
"F F ( 2.:.g @ @ 6 6 6 0.F W F J &.&.2 . ; 6 6 6 F W W W  .&.d + # 5 6 6 F F F 6 m h x 2 . ; 0.6 F F ",
"# # @ $ $ @ o o # O # @ # # # @ $ + + X O # # @ # @ # # + $ $ o . O # # @ # % # @ $ $ + . O # @ # @ ",
"  o O + + + + + + + + + +   O @ + + @ + @ + + + + X o @ + + + + @ + + $ + o X @ @ @ + + + + + + + + ",
"  & B  .d d h &. .&.d h * o 3 B d d &.h d &.h h t o & F  .d &.d &.h d &.&.* o 3 b d d d &.&. .&.d h ",
"  & W &.&.&.&.h x h x &.: o 3 6.&.&. .&.&.h &.a.t o & 6 &.&.a.X.&.&.&.&.a.* o 4 J &.&.&.h x &.h &.&.",
"  & Q } &.:. . .&.:.h a.: o 3 J 2. .&.&.&.} &.&.t o & 0.} &.X.{ $.&.&.&.<.: o 3 J  .&. .&. .&.a.&.h ",
"  & 0.F e.F F F Q  .x a.: o 3 r.F 0.F r.Q Q &.&.t o = e.0.Y 6 0.0.F } a.a.: o 3 0.0.F F 0.0.Y &.a.a.",
"  @ = = & = = - = = : : + o & - = = = & = - * * * X + = = = = = & = = * : + X & & = = = = = = * * * ",
"X X o X o o     o o o X o o X o o o X   . o o o o o o X o o o   . o o o o o o o o o o X   o o o o o ",
"u 7 7 7 t 0 + O 3 8 7 7 u 7 7 7 7 t >   - 4 0 t e 7 7 u t 7 7 @ O 3 2 i t 7 t 7 7 t t >   - 4 0 7 t ",
"&.&.h a.a.a.@ @ 6 } h x h &.&.&.$.u.2 o ; 0.$.&.h  .&.&.a.u.h $ @ 6 } h &.&.&.&.h a.a.2 X ; Y &.&.&.",
"&.$.&.a.h :.$ O 6 { &.&.&.&.&. .&.u.2 o < W &.&.:.&.&.&.&.h h $ @ 6 } h &.:.&.&.h &.a.2 o ; W &.&.&.",
"Y Y ^ >.a.&.$ @ F 0.Y V Y Q Y 6.p.a.2 o ; 0.0.Y Y ! Y Y -.a.a.$ O 6 0.Y Q Y Y J 6.<.s.2 . < 0.Y Y Y ",
"1 1 1 2 2 2 + O ; 1 1 1 1 1 1 < 2 2 *   = ; 1 1 1 1 1 1 2 2 2 + O ; 1 1 1 1 1 1 1 , 2 : . & 1 1 ; 1 ",
"X X   . X       o o o X o X . X X o       o   o o   o o o     X .   o o o o     . . .     X X   o o ",
"  # 1 < < 2 2 > > > > , $ o - < 2 > > 2 < > 2 , > X # < < 2 < , < 2 2 > , $ o - < 2 > 2 < , > 2 > 2 ",
"  & Q &.&.a.&.a.a.&.a.a.: o 3 Y u.a.h a.x a.&.&.t o & 0.$.&.&.&.a.&.&.&.a.: o 4 Y &.a.&.&.a.&.&.&.&.",
"  & 0.$.&.&.&.&.&.&.&.a.* o 4 9.x &.&.a.x h a.&.t o & F $.&.&.h &.&.&.&.a.: o 3 6.h &.&.&.&.&.&.&.&.",
"  % W 9.J m m m m 2.&.&.* o 3 Q m m m m m J h &.t o & F B m m ! J J  .h a.: o 4 F m N m m m } &.&.&.",
"  & F W F e.F e.W } &.&.* o 5 e.F W F e.F F &.&.d o & 6 W F W F e.F } &.&.* o 4 W W W F F W B :.&.&."
};
