/* XPM */
static char *fadbdf1e76b44e28b57efaa0993b48cebqqcVaFvfcEFzp7J[] = {
/* columns rows colors chars-per-pixel */
"50 50 150 2 ",
"   c #1F262E",
".  c #1E2430",
"X  c #22262E",
"o  c #26292E",
"O  c #2D2D2D",
"+  c #302F2B",
"@  c #2F302B",
"#  c #34332F",
"$  c #3D362E",
"%  c #3F392D",
"&  c #212530",
"*  c #262B34",
"=  c #2B2D33",
"-  c #312F30",
";  c #2D3133",
":  c #333332",
">  c #3B3632",
",  c #3F3831",
"<  c #40372E",
"1  c #433B2D",
"2  c #493E2D",
"3  c #403730",
"4  c #443B31",
"5  c #4A3D31",
"6  c #47402E",
"7  c #4B412D",
"8  c #53452D",
"9  c #54482D",
"0  c #5C4A2D",
"q  c #4C4131",
"w  c #524431",
"e  c #544830",
"r  c #5B4A30",
"t  c #644E2E",
"y  c #65512E",
"u  c #6A532D",
"i  c #71552F",
"p  c #775A2E",
"a  c #7A5B2C",
"s  c #604B32",
"d  c #675131",
"f  c #6A5331",
"g  c #775A30",
"h  c #7A5D31",
"j  c #966F2C",
"k  c #9A6E2C",
"l  c #97702D",
"z  c #9C712D",
"x  c #A9772B",
"c  c #AB792C",
"v  c #B17C2C",
"b  c #AA7A30",
"n  c #B7822C",
"m  c #BB832C",
"M  c #B58030",
"N  c #FBA51F",
"B  c #C98B27",
"V  c #C2872E",
"C  c #C68A2B",
"Z  c #CA8D2A",
"A  c #CF912D",
"S  c #D5922A",
"D  c #D9932B",
"F  c #DD992E",
"G  c #C78C30",
"H  c #D89230",
"J  c #E29B27",
"K  c #E29A2A",
"L  c #E89C2C",
"P  c #E7A02D",
"I  c #EAA12D",
"U  c #F6A325",
"Y  c #FDA621",
"T  c #F8A326",
"R  c #F8A525",
"E  c #F8A427",
"W  c #FAA526",
"Q  c #F8A626",
"!  c #F9A626",
"~  c #F9A525",
"^  c #FFA920",
"/  c #FFA823",
"(  c #FEAA23",
")  c #FFAE21",
"_  c #FFAC22",
"`  c #FFAD23",
"'  c #FCA824",
"]  c #FFA924",
"[  c #FFA825",
"{  c #FFAB24",
"}  c #FFAB25",
"|  c #FDAA26",
" . c #FCAB26",
".. c #FEAA26",
"X. c #FEAB27",
"o. c #FFAB27",
"O. c #FAAC26",
"+. c #FDAC25",
"@. c #FEAC24",
"#. c #FEAC25",
"$. c #FFAC25",
"%. c #FFAD25",
"&. c #FFAC26",
"*. c #FEAD26",
"=. c #FFAD26",
"-. c #FFAE26",
";. c #FFAF26",
":. c #FFAE27",
">. c #FEAB25",
",. c #F1A229",
"<. c #F3A328",
"1. c #F2A229",
"2. c #F2A12B",
"3. c #F1A22B",
"4. c #F2A32A",
"5. c #F0A42A",
"6. c #F1A52B",
"7. c #F3A42B",
"8. c #F4A429",
"9. c #F4A42B",
"0. c #F2A32C",
"q. c #F4A52C",
"w. c #F4A429",
"e. c #F9A729",
"r. c #F9A628",
"t. c #F7A92B",
"y. c #FBA929",
"u. c #FDA829",
"i. c #FFA928",
"p. c #FCAB28",
"a. c #FFAA29",
"s. c #FEAB29",
"d. c #FDAB2B",
"f. c #FBAC2B",
"g. c #FDAC29",
"h. c #FFAC28",
"j. c #FEAD28",
"k. c #FFAF2C",
"l. c #FDAA29",
"z. c #FEB125",
"x. c #FFB226",
"c. c #FFB327",
"v. c #FFB425",
"b. c #FFB727",
"n. c #FFB427",
"m. c #FFB129",
"M. c #FFB329",
"N. c #FFB528",
"B. c #FFB02D",
"V. c #FFB229",
/* pixels */
": = * * * * * * * * * * * & = : = = * * * * * * * * * * * ; : ; * * * * * ; * * * * * * * : ; * * * ",
": i a p p p p p p p p g p a e ; f h g g p p g g g g g p h r ; d a a p p p p p g p p p a y = t a p a ",
"O I x.g.;.;.*.;.;.;.' ;.p.b.z o F x.p.g.' ;.;.;.p.;.' ' b.n   A x.' ;.' z.x.;.;.;.@.;.M.C . m v.f.' ",
"= K Y U T 8.U U T T T T <.@.l o S ' T U T T T T w.w.T T *.x   C W T R ! <.U T w.T U 1.;.m . m ' 1.U ",
"+ K ' U U ! ! ! ! ! ! ! T ;.l o S ' U ! ! ! ! ! ! ! ! T ;.x   C ' ! ! ! ! ! ! ! ! ! T ^ m   n ;.R ! ",
"O K ' U ! ! ! ! ! ! ! ! U @.j o D ' U U ! ! ! ! U ! ! T ;.x & C ' R ! ! ! ! ! U ! U T @.m & m ^ R ! ",
"= L ^ Y Y Y Y Y Y Y Y ^ N @.z o D ;.~ Y Y Y ^ Y N Y Y Y g.c & Z ^ ~ Y Y Y Y Y Y N ~ N z.m & v ;.N Y ",
"- K e.4.7.8.q.6.q.0.0.I 4.' j o S f.1.T 8.8.8.4.4.4.8.6.g.x o C i.4.8.8.8.8.4.4.4.U 1.' m o M l.1.w.",
"* < 1 < % % < % 1 6 2 % % < # * > 1 < < % < % 4 2 2 % < 4 > * $ < % < < < < % 7 7 < 1 < # * $ < < < ",
"f f u u u y u u u : > f u u u i u y u u u u d u # > u u y u u u u u u u u u u , : y u u u i f u u y ",
"' ;.;.;.;.' ;.' l.5 f M.' g.' i.g.;.' g.l.l.' k.9 r k.' ;.' ' ;.;.;.l.;.g.;.M.u 1 p.g.g.M.' i.' ' ;.",
"R U U U T T T Y w.4 t ;.T T ! T R U ~ U T ! R i.8 8 e.Y ~ U U ~ U U U T U T ' t 1 U ! U U U T Y ! ! ",
"e.! ! ! ! ! Y ! w.1 u l.R W ! ! ! ! ! ! R W R W 8 8 i.N ! ! ! ! ! T U e.! R ' t 1 Q ' U ! R ! ! ! ! ",
"! ~ T Y U ! ! W E 2 s ;.R ! ! ! ! ! ! ! R R R i.8 8 e.U ! ! ! ! ! ! ! ! ! R M.t 1 Q ' U ! ! R ! ! ! ",
"Y ! R W W R Y W e.1 s ^ Y R R Y Y R ! ~ R W R i.8 8 i.Y Y R ! Y Y R ~ ! Y U ;.t 1 e.Q U Y R ~ ! ~ ! ",
"E E E e.! e.w.! q.5 u l.E w.e.e.e.e.e.R w.i.E u.8 8 l.R w.e.E w.! e.! 8.U T g.t 5 q.' t.e.e.! e.! U ",
"6 6 7 8 8 7 6 5 q * ; 7 6 6 1 5 1 2 5 e 7 1 7 6 : ; 6 7 1 7 6 5 2 2 8 7 7 5 7 : + 1 7 6 7 2 1 7 2 8 ",
"0 0 0 7 * 7 0 0 0 y t 0 0 0 0 0 r 0 w = q 0 0 0 0 t 0 0 0 0 9 0 0 9 * 1 0 0 9 t t 0 r 0 r 0 r 0 9 = ",
"l.f.v.n   m M.' ' l.' ' ' g.' ;.' M.Z & v x.' ' ' ' l.' ' ' l.' ;.F X x M.^ ' g.l.' ' ' ' ' i.;.L O ",
"T T @.n o m ^ U U U ! U ! ! ! U T ' C X x ;.w.U U ~ ! ~ ! ! ! U Y D X k @.U Q U ! ! ! ! U ! T Y J O ",
"U U ;.v   m ;.T ' ' ! ! Q Q ' ! U ' C X x N T U ! ! ! ! ! ! ! ! ' D * k ' R ! ! ! ! ~ ! ! ! R W J = ",
"! T ^ m   m @.T ' 8.! ! Q ' U ! w.;.C X x ) T ! ! ! ! ~ ! ! ! U ' D o k ;.R ! ! ! ! ~ ~ U ! w.^ J @ ",
"! U @.m . m ^ T U ! U ! Q R U U R ' B X c @.! ~ ! ! ! ! ~ ~ U U ' D o k ;.U ! R ~ U ~ ~ ~ U U ' J o ",
"d.U ;.m o m M.! ' ' ! f.' ' ' ' i.g.Z X v v.e.' ' e.l.l.' ! f.' ' D O k M.! ' e.' f.~ ' ' ' ' x.I # ",
"8 8 9 4 * 4 9 8 w r 0 8 8 7 8 8 8 9 5 * 4 8 8 9 r e 8 8 8 8 8 8 9 7 = < 9 8 w r 0 8 8 8 8 8 8 8 8 * ",
"8 q 8 9 0 9 w 8 w - : 8 8 w w w w 8 q 0 8 w w e : ; e w w w w 7 q 8 0 8 w q w : * w 8 q 7 w w 8 7 0 ",
"f.' ' p.! l.e.' t.5 u M.e.e.l.' f.l.e.e.i.e.l.d.r 8 l.' l.g.l.' ' l.f.g.l.e.M.u 1 f.i.i.i.u.l.f.' e.",
"U ~ Q U ~ ! W W e.1 s ' R Y ~ U ~ U Y ! R R ~ W 8 8 ' ~ ! U ~ ! ~ U U U ! ! ' t < e.! ! ! U ~ ~ ! ! ",
"U ' Q U ! ! ! ! E < u ;.U U U ' ~ ! ! ! ! ! ! l.9 7 ' N U ! ! ! ' U U Q U Y ;.t 5 t.! ! Q Q ' ! ! ! ",
"f.U ' ' ! ! ! W e.1 s ;.~ U ' R ! ! ! ! ! U ~ W 9 8 ' ~ ' ! ' U Q ' ' Q ! U ;.t < Q Y ~ U ' 8.! ! ! ",
"U U N U U U R R 8.4 y ' U U ~ ~ R ' U N U ! ~ W 8 w W Y U U U U N U ~ U U U ' t 1 1.U N ~ N U ~ Y U ",
"^ @.@.) N ;.^ ^ l.5 f x.@.@.@.@.@.N @.N ^ ;.^ ' r 8 ;.^ @.@.^ @.z.N @.@.' ^ x.y 2 f.*.^ @.@.N @.' ^ ",
"t 0 t 0 0 s s t 0 + $ t 0 0 s t t 0 0 0 0 0 0 s # # s 0 0 t t t 0 0 t 0 0 0 t > - 0 t 0 t t t 0 t 0 ",
"= 1 2 2 2 2 2 1 2 2 8 1 2 2 > o < 7 2 2 2 2 1 2 8 7 2 6 6 , * < 2 2 2 1 2 2 2 2 8 1 1 2 $ * , 2 2 2 ",
"# K Y U ! e.U ! W T T E U ' k o H g.U ! U U ' U U U ' U ;.x X C ;.<.Y T ! ! U T U R T ' m & n ' U 8.",
"O K ^ U ~ ! ! ~ Y Y R R ! ;.k o D ' U ~ U ~ ! ! ! ! ! U z.c o A ^ T U Y ! ~ ! ~ ! ! T ;.m . m ;.~ ~ ",
"@ K ' ! ! R ~ T U ~ ! ! T ^ l & D ' ~ ! U ~ U ! ! ! ~ U ' c & C ' ! ! U ~ U U ! ~ U T ' m . n ' T U ",
"O K Y U ! ! ! ! ! ~ ! ! U ;.l * D ' ~ ! ! ! ! ! ' ! ! R ;.c & C ' ! ! ! ! ! ! ! ' U T ;.V X m ' T ! ",
"O J N T R R U ~ ~ U U U 1.;.k o S Y N U U U ! U U U U T ;.x & C ' T U U U ! ~ U U U T ^ m & m ;.T U ",
"# I @.;.' ;.' ;.;.' ;.g.' v.z o F x.! ;.;.;.;.' ;.;.' l.x.v & S M.;.' ;.;.' ;.;.;.;.l.M.C X m M.' ' ",
"; y u y u u u u u u i f u u q = s u u u u u f u i u u y i w * 0 u y u u u u u u u u u u 9 * e f u u ",
"7 < < % , $ 4 < % ; = < % $ 1 7 < $ , 4 , , 3 4 ; ; < < 3 1 5 < $ , 4 % % % % ; = , < < 1 7 4 4 3 < ",
"1.1.6.T 4.T 1.U 0.1 t l.1.w.w.4.T 6.T w.4.4.T 8.8 8 f.4.w.4.4.1.U 6.U <.<.<.l.y 1 0.1.8.1.1.4.4.T 4.",
"! ~ Y ~ ! ! W Y e.4 u ;.Y Y W W ! ! ! ! ~ Y ! W 8 8 l.Y W W Y W Y ~ ~ ~ U N ;.t 5 e.Y W Y ! ! Y W W ",
"~ ~ ~ ~ ! U R ~ 8.< t ;.R R R Y Y T U U R w.R l.9 e i.U R R R R ! U ! ! ! T ' t 2 8.! U T ~ U ~ R R ",
"! ! ! ! ! ! T ~ e.4 y ;.R R U T ! ! ! ! ! ! Y l.8 w ' ~ ! ! ! ! ! ! ! ! ! U ;.t < e.! T U U U ' e.R ",
"U U U U ! U <.Y w.1 y ' T T w.R R w.R e.R <.U ! 8 w W Y e.R T R T T T T T T ' t 1 8.e.T T T U U E E ",
";.;.;.;.;.' l.;.k.1 y M.' ;.g.' ;.g.' ' ;.' ;.g.r 9 M.' ' ;.' l.;.' ;.;.;.;.M.u 5 g.' ;.;.;.;.g.l.i.",
"p p a a p p g g g > 4 h a a a g a a a a a a a a 3 3 h g g g a a p p p a p p a 2 > g a g a a a a a a ",
"* * * * * * * * * - - * * * * * * * * * * * * o - - * * * * = * * * * * * * * O : * * * * * * * * & "
};
