/* XPM */
static char *icons8_heat_map_501673087946[] = {
/* columns rows colors chars-per-pixel */
"50 50 87 1 ",
"  c None",
". c #1F212B",
"X c #20222C",
"o c #20232D",
"O c #22222C",
"+ c #22232C",
"@ c #20242D",
"# c #22242C",
"$ c #22252E",
"% c #282A31",
"& c #3A2D36",
"* c #30373A",
"= c #48393A",
"- c #493F3D",
"; c #493D3E",
": c #4D3C3C",
"> c #50353E",
", c #52373E",
"< c #4C413D",
"1 c #2E4442",
"2 c #304542",
"3 c #374743",
"4 c #3D4441",
"5 c #3B6456",
"6 c #3C6659",
"7 c #424743",
"8 c #4E4E46",
"9 c #44554E",
"0 c #45564E",
"q c #6A4247",
"w c #75464C",
"e c #7D4A4F",
"r c #7E4B4F",
"t c #7E524B",
"y c #7C554C",
"u c #7C564C",
"i c #7D4A50",
"p c #7E5250",
"a c #775951",
"s c #7A5854",
"d c #7F5B55",
"f c #4D6055",
"g c #486E5F",
"h c #4F6C5D",
"j c #51665A",
"k c #566C5D",
"l c #56705F",
"z c #7E6652",
"x c #6A715F",
"c c #587060",
"v c #757C62",
"b c #7D7E62",
"n c #885D4F",
"m c #804B50",
"M c #814B51",
"N c #8F5156",
"B c #915C51",
"V c #9B575B",
"C c #A75C5F",
"Z c #816450",
"A c #816752",
"S c #846651",
"D c #9D6356",
"F c #80715C",
"G c #A37165",
"H c #CC6C6E",
"J c #DD7374",
"K c #F27C7C",
"L c #828064",
"P c #8E8C6B",
"I c #9C9872",
"U c #AAA57A",
"Y c #C18473",
"T c #F59173",
"R c #F79E77",
"E c #FBB97F",
"W c #60BD91",
"Q c #8EB991",
"! c #E29882",
"~ c #C0BC86",
"^ c #F4A38A",
"/ c #93C095",
"( c #9FD1A0",
") c #A0D2A1",
"_ c #D4CE92",
"` c #F9F1A7",
"' c #FEF6AA",
/* pixels */
"                                                  ",
"                                                  ",
"                                                  ",
"                                                  ",
"                                                  ",
"                                                  ",
"                                                  ",
"                                                  ",
"          #...........................#.          ",
"         %~`''''^KKKKKKKd'''''''')))))/f#         ",
"        +~''''''GKKKKKKKd'''''''U))))))(*         ",
"        .`''''''!KKKKKKKd'''''''')))))))j         ",
"        .'''''''GKKKKKKKd'''''''I)))))))k.        ",
"        .'''''''sKKKKKKKd'''''''P)))))))k.        ",
"        .'''''''sKKKKKKKd'''''''_)))))))k.        ",
"        .'''''''YKKKKKKKd'''''''_)))))))k.        ",
"        XFFFFFFFappppppp;LLLLLLL8hhhhhhh3.        ",
"        XTTTTTTTREEEEEEEA'''''''bWWWWWWW5.        ",
"        .TTTTTTTnEEEEEEEA'''''''bWWWWWWW5.        ",
"        .TTTTTTTuEEEEEEEA'''''''bWWWWWWW5.        ",
"        .TTTTTTTuEEEEEEEA'''''''bWWWWWWW5.        ",
"        .TTTTTTTuEEEEEEEA'''''''bWWWWWWW5.        ",
"        .TTTTTTTuEEEEEEEA'''''''bWWWWWWW5.        ",
"        .TTTTTTTuEEEEEEEA'''''''bWWWWWWW5.        ",
"        .yrymttt=ZZZZZZZ;vvvvvvv766666661.        ",
"        .KKKKKKKeTTTTTTTu)))))))lWWWWWWW5.        ",
"        .KKKKKKKeTTTTTTTu)))))))lWWWWWWW5.        ",
"        .KKKKKKKeTTTTTTTu)))))))lWWWWWWW5.        ",
"        .KKKKKKKeTTTTTTTu)))))))lWWWWWWW5.        ",
"        .KKKKKKKeTTTTTTTu)))))))lWWWWWWW5.        ",
"        .KKKKKKKeTTTTTTTy)))))))lWWWWWWW5.        ",
"        .KKKKKKKeTTTTTTTy)))))))lWWWWWWW5.        ",
"        .KCKVNNHmTDBBBBB:xxxxxxx4ggggggg2.        ",
"        .KKKKKKKMKKKKKKKi^EEEEEEz()())))k.        ",
"        .KKKKKKKMKKKKKKKnEEEEEEEz)))))))k.        ",
"        .KKKKKKKmKKKKKKKrEEEEEEEz)))))))k.        ",
"        .KKKKKKKmKKKKKKKrEEEEEEEz)))))))k.        ",
"        .KKKKKKKmKKKKKKKrEEEEEEEz)))))))k.        ",
"        #JKKKKKKmKKKKKKKrEEEEEEEz)))))))0         ",
"        .qKKKKKKmKKKKKKKrEEEEEEEz))))))Q$         ",
"         +&wiiii,immmmmm,SSSSSSS<ccccc0$          ",
"            ......X...................            ",
"                                                  ",
"                                                  ",
"                                                  ",
"                                                  ",
"                                                  ",
"                                                  ",
"                                                  ",
"                                                  "
};
