/* XPM */
static char *_79e20510d9c40ca9e32c46dde4d9d13p9AE4skoyT7uJD0n[] = {
/* columns rows colors chars-per-pixel */
"50 50 56 1 ",
"  c #382F26",
". c #393126",
"X c #3D352A",
"o c #40382D",
"O c #453D33",
"+ c #483F36",
"@ c #464034",
"# c #494136",
"$ c #4C443A",
"% c #50473E",
"& c #51493E",
"* c #554C42",
"= c #584F46",
"- c #595146",
"; c #5D544A",
": c #60574E",
"> c #61594E",
", c #655C52",
"< c #685F56",
"1 c #696156",
"2 c #6D645B",
"3 c #71675E",
"4 c #71695E",
"5 c #756C62",
"6 c #786F66",
"7 c #777066",
"8 c #797066",
"9 c #7D746A",
"0 c #80776E",
"q c #81786E",
"w c #857C72",
"e c #887F75",
"r c #8A8177",
"t c #8D847A",
"y c #90867D",
"u c #92897E",
"i c #958C82",
"p c #998F85",
"a c #979185",
"s c #9A9186",
"d c #9D938A",
"f c #A1968D",
"g c #A2988F",
"h c #A29791",
"j c #A59B92",
"k c #A99E95",
"l c #ABA097",
"z c #AEA399",
"x c #B2A69D",
"c c #B4A89F",
"v c #B6AAA0",
"b c #BAADA4",
"n c #BAB0A6",
"m c #BFB2A9",
"M c #C0B3AA",
"N c #CDC0B7",
/* pixels */
"pdp2wfddddssssadddr4ckjjjkkkjkfp,pbkjjjjjjjjhkjjff",
"sfi5iddddddsdddddsr*ihgffggggkfp1xzkkfddpfffhkfddd",
"ssw2sddpssssytr974;XO,400eewupiw;czkjddfdfgjkfdddd",
"yw;*9wew71<-$$3wttuyweew005342>$*jlkjsddddddsidpis",
"1;$&;1341231O=dvcccxccvccczzkft*$6tdw0wqw009988528",
"rydgfhghsdds6;fzzxxzxxxllkkkxzp,-*,:=;:;::;;OO,9ei",
"fhhgdddfddsst-5fgggjgffgggffpi9=7ttiiputiiii*2fhjh",
"sfjfdddfdddspt,wjfsiytuiyw94,>%+uhddddfdddpi*efddd",
"sdfsdddjdsasau,$;29999eyueetyuw=whdaddddssst;wsddf",
"sddpssddputw73<-orzlxcxzkkzklgj39iiiaydassia2wfddd",
"pssddatr9557wpdp1flgjljkjcxkjlf4O=-:*&4ripiw:2ssds",
"sdsyw519rtpsddds0glgllkzkkjkfdgt,tdi9*,223,OX9hsff",
"94239wusddssdddy0ljlkjgghffdddfp3zbvvkxkkpt5*qzkjs",
"29tpassdddsaddp1>zjfffffhjjfsur5=fvvxxcxxxcxq,93,<",
"isdddddsddddddt*#txcgie95:<62;;*+exkkkxxxkije+:8ey",
"sdgspssputurw9>%&#,>15692@wjfsdp92idffffddpi2-9tii",
"134>&:>332332230tsgrfxcxk06kfffpt-2pdsi99ww2*=-*>1",
"0qw0:.0jkzzxxcccccccxcxxcp,ipyyt6$=453,*+;9iidi7te",
"ffffw<xfxcccxcjlxlcxkcfzcf*,3:,6rtyspptt=3fddddsfd",
"upsfw0czxxxxxxfgjgjgggfgjd<o3eisddpddddf4<ddddsddd",
"uufu40xccxlljffdffsfsffffd4,fdfusddddsds52dddssdss",
"fsfp1=0klkkkfffsfsffgggst5-&iffddddsdfsp5>iddddsss",
"wq31:$&4euywwyufsfpt0093&o>&3piipuiytw09; +-259tty",
"&&wfcku8>%#+$-,<>&%+#&##&&-;:562:-*#+;=,1<;>1<,,11",
"41xjzcxkkfe0440:o4yyiitidffffddirtw5&usjcczxcxfypf",
",,cllzljkklkklkq*kgffsdggddfddddddfs,ycxxxxxckxxcz",
"w-llcljkkkgjkgf2+fgsfdpgddddpifdsdsp,ybxxxkkxxxjkj",
"w:xjjggggfffffs0Ophfgffspspsiifssssp<dvxcgjhhdddfs",
"4&ulffgdgffsffp6oyjfdppspsddddddpppe%0kjgfdpdddity",
"O-*7ytgjgs0<242:%>ufgfggdrwye0eyuw9:o#&=,900q95,$%",
"24>#*&&&&$,14ukkk4,9kde92>,5-X#*:>3wuuw;-%o+<,<:;<",
"sfsrtyr94&fbccxcxlg4:26w0ydd3:usyfkcxckpz0o:sffssf",
"sffdyfspi=ucxjjklzvi<sddfdfr2dvvhcvxxlcvf;=ygdddff",
"ssdsffddp1tvkfghlla72r97994>svvzhjklxlkj9O6addddas",
"pppsfspff44uw35931,;;25992X-lcvhddsddsdt&<puuduapu",
"psassssss4O=,4099rypdddddi:Otclfhdhdddi:Owfsasddss",
"tusdpispp53spfffdsdddsidsi7#ijdjlhaw54=. -22<390qr",
"<1><310ey44jfsppssdsdssppit;491>>;*-;,22,*Xo&><111",
"si-$:,52:&=44>335269653322;OX*;12rpagjjfss,:ufdfad",
"dsq2fdfdyteq95:*,qrww92695<#$ikdggddddddpf4:sfsddd",
"ads2ssdssfsfffy&wfdfgfdfdsd4orlffddddggddd2;passud",
"utt4qssdsdsffsy:tdddddddssp9o9gdddddfgdapq&%:347ra",
":,;&&;=490ewry0%4sfffdpdddsy->gddssfdddar:9dir94>-",
"ujfpsp2-490863&X0fpspppsssss9#tgasdfdgdt2;gzxzzlf&",
"yffggje9ffdppu1X9apasfdssdppr$-7qfpt3,,%XO24490er>",
">,2122;$155341-#:>,<244349642o$&&&:wt95321:;<<<222",
"tru>$5wt0wiiiyyut6&#9tte7>21>&;,:o6cvvbmbxljjkjkjg",
"dllwqfsfddfddfffggq>zllzlflgffa5o,fMcllzzzzzzllljl",
"gljwtddddgdiiddsdhe<zzkkkllljllj:0MMxjkkgfllclgllg",
"dfp1tggddfddddssdde5zlkkkzcllhgd>4Mzjfkkjzcnxlfalf"
};
