/* XPM */
static char *pixil_frame_0_6_1673257809[] = {
/* columns rows colors chars-per-pixel */
"50 50 2 1 ",
"  c None",
". c #00FFEE",
/* pixels */
"                                                  ",
"                                                  ",
"                    .........                     ",
"                 ...         ...                  ",
"               ..               ..                ",
"             ..                   ..              ",
"            .                       .             ",
"          ..                         ..           ",
"         .                             .          ",
"        .                               .         ",
"        .                               .         ",
"       .                                 .        ",
"      .                                   .       ",
"      .                                   .       ",
"     .                                     .      ",
"     .                                     .      ",
"    .                                       .     ",
"    .                                       .     ",
"    .                                       .     ",
"   .                                         .    ",
"   .                                         .    ",
"   .                                         .    ",
"   .                                         .    ",
"   .                                         .    ",
"   .                                         .    ",
"   .                                         .    ",
"   .                                         .    ",
"   .                                         .    ",
"    .                                       .     ",
"    .                                       .     ",
"    .                                       .     ",
"     .                                     .      ",
"     .                                     .      ",
"      .                                   .       ",
"      .                                   .       ",
"       .                                 .        ",
"        .                               .         ",
"        .                               .         ",
"         .                             .          ",
"          ..                         ..           ",
"            .                       .             ",
"             ..                   ..              ",
"               ..               ..                ",
"                 ...         ...                  ",
"                    .........                     ",
"                                                  ",
"                                                  ",
"                                                  ",
"                                                  ",
"                                                  "
};
