/* XPM */
static char *down1673532566[] = {
/* columns rows colors chars-per-pixel */
"50 50 42 1 ",
"  c black",
". c #060606",
"X c #090909",
"o c #0C0C0C",
"O c gray8",
"+ c #191919",
"@ c #1D1D1D",
"# c #252525",
"$ c #2A2A2A",
"% c #2F2F2F",
"& c #3C3C3C",
"* c #3F3F3F",
"= c gray25",
"- c #464646",
"; c gray28",
": c #585858",
"> c gray35",
", c #606060",
"< c gray45",
"1 c #747474",
"2 c gray49",
"3 c #848484",
"4 c gray60",
"5 c gray64",
"6 c #A5A5A5",
"7 c gray66",
"8 c gray68",
"9 c gray70",
"0 c #B4B4B4",
"q c gray73",
"w c #BBBBBB",
"e c #CBCBCB",
"r c gray82",
"t c #DADADA",
"y c gray86",
"u c gray89",
"i c #E7E7E7",
"p c #EFEFEF",
"a c #F1F1F1",
"s c #F4F4F4",
"d c #FBFBFB",
"f c white",
/* pixels */
"                                                  ",
"                                                  ",
"                                                  ",
"                                                  ",
"                                                  ",
"                                                  ",
"      +>@                                @>+      ",
"       5t3%.                          .%3t6       ",
"       =pfi5-o                      o-5ifp=       ",
"       .6fffaq,+                  +>wsfff6.       ",
"        *pffffdr2$              $2rdffffp=        ",
"        .5fffffffu4*X        X=4ufffffff6         ",
"         =pffffffffp9:O    O>0affffffffa=         ",
"          6ffffffffffde<##1edffffffffff6          ",
"          =afffffffffffftiffffffffffffa=          ",
"           6ffffffffffffffffffffffffff7X          ",
"           =pffffffffffffffffffffffffp=           ",
"           .6ffffffffffffffffffffffff6X           ",
"            =affffffffffffffffffffffa=            ",
"            X6ffffffffffffffffffffff6X            ",
"             =affffffffffffffffffffa=             ",
"              6ffffffffffffffffffff6X             ",
"              =affffffffffffffffffp-              ",
"              X7ffffffffffffffffff6X              ",
"               =pffffffffffffffffa-               ",
"                6ffffffffffffffff6.               ",
"                -pffffffffffffffa-                ",
"                X6ffffffffffffff6X                ",
"                 -pffffffffffffa-                 ",
"                 .6ffffffffffff7X                 ",
"                  -affffffffffa-                  ",
"                  X6ffffffffff7X                  ",
"                   =affffffffa-                   ",
"                   X7ffffffff7X                   ",
"                    -affffffa-                    ",
"                    X7ffffff7X                    ",
"                     -affffa-                     ",
"                     X7ffff7X                     ",
"                      -affa-                      ",
"                      X7ff7X                      ",
"                       -aa-                       ",
"                       X80                        ",
"                        **                        ",
"                                                  ",
"                                                  ",
"                                                  ",
"                                                  ",
"                                                  ",
"                                                  ",
"                                                  "
};
