/* XPM */
static char *pixil_frame_0_15_1673529288[] = {
/* columns rows colors chars-per-pixel */
"50 50 3 1 ",
"  c black",
". c #850000",
"X c #EEEEEE",
/* pixels */
"                                                  ",
"                                                  ",
"  ..............................................  ",
"  ..............................................  ",
"  ..............................................  ",
"  ..................XXXXXXXXXXX.................  ",
"  ...............XXXXX       XXXXX..............  ",
"  .............XXXX             XXXX............  ",
"  ...........XXXX                 XXXX..........  ",
"  ..........XXX                     XXX.........  ",
"  .........XXX                       XXX........  ",
"  ........XXX                         XXX.......  ",
"  .......XXX                           XXX......  ",
"  ......XXX                             XXX.....  ",
"  .....XXX                               XXX....  ",
"  .....XXX                               XXX....  ",
"  ....XXX                                 XXX...  ",
"  ....XXX                                 XXX...  ",
"  ...XXX                                   XXX..  ",
"  ...XXX                                   XXX..  ",
"  ...XXX                                   XXX..  ",
"  ..XXX                                     XXX.  ",
"  ..XXX                                     XXX.  ",
"  ..XXX                                     XXX.  ",
"  ..XXX                                     XXX.  ",
"  ..XXX                                     XXX.  ",
"  ..XXX                                     XXX.  ",
"  ..XXX                                     XXX.  ",
"  ..XXX                                     XXX.  ",
"  ..XXX                                     XXX.  ",
"  ...XXX                                   XXX..  ",
"  ...XXX                                   XXX..  ",
"  ...XXX                                   XXX..  ",
"  ....XXX                                 XXX...  ",
"  ....XXX                                 XXX...  ",
"  .....XXX                               XXX....  ",
"  .....XXX                               XXX....  ",
"  ......XXX                             XXX.....  ",
"  .......XXX                           XXX......  ",
"  ........XXX                         XXX.......  ",
"  .........XXX                       XXX........  ",
"  ..........XXX                     XXX.........  ",
"  ...........XXXX                 XXXX..........  ",
"  .............XXXX             XXXX............  ",
"  ...............XXXXX       XXXXX..............  ",
"  ..................XXXXXXXXXXX.................  ",
"  ..............................................  ",
"  ..............................................  ",
"                                                  ",
"                                                  "
};
