/* XPM */
static char *left1673532596[] = {
/* columns rows colors chars-per-pixel */
"50 50 41 1 ",
"  c black",
". c #070707",
"X c gray3",
"o c #0C0C0C",
"O c gray8",
"+ c #181818",
"@ c #1E1E1E",
"# c gray14",
"$ c #252525",
"% c gray16",
"& c #2F2F2F",
"* c #3F3F3F",
"= c gray26",
"- c #444444",
"; c gray28",
": c gray35",
"> c #606060",
", c gray45",
"< c #747474",
"1 c #7C7C7C",
"2 c #848484",
"3 c #979797",
"4 c #989898",
"5 c gray64",
"6 c #A7A7A7",
"7 c #AAAAAA",
"8 c gray68",
"9 c #B2B2B2",
"0 c gray70",
"q c gray73",
"w c #CBCBCB",
"e c gray82",
"r c #DADADA",
"t c #DFDFDF",
"y c gray89",
"u c #E7E7E7",
"i c #EFEFEF",
"p c gray94",
"a c #F3F3F3",
"s c gray98",
"d c white",
/* pixels */
"                                                  ",
"                                                  ",
"                                                  ",
"                                                  ",
"                                                  ",
"                                                  ",
"                                           +      ",
"                                        .*5:      ",
"                                      .*6ir@      ",
"                                     =6idd2       ",
"                                   =6idddu&       ",
"                                .=6iddddd4.       ",
"                              .=6iddddddp-        ",
"                             =6pddddddddqo        ",
"                          .=6pddddddddds>         ",
"                         -6pddddddddddde+         ",
"                      .=7iddddddddddddd1          ",
"                    .-7iddddddddddddddu%          ",
"                  X-7idddddddddddddddd3           ",
"                X-7pdddddddddddddddddi*           ",
"              X-7pddddddddddddddddddd0X           ",
"            X-7pdddddddddddddddddddds:            ",
"          X-7iddddddddddddddddddddddwO            ",
"        X-8pddddddddddddddddddddddds,             ",
"       *8pdddddddddddddddddddddddddt#             ",
"       *0adddddddddddddddddddddddddt#             ",
"         ;8pdddddddddddddddddddddddd<             ",
"          X;7pddddddddddddddddddddddwO            ",
"            X-8pdddddddddddddddddddds:            ",
"              X-7pddddddddddddddddddd0X           ",
"                X-7pdddddddddddddddddi=           ",
"                  X-7idddddddddddddddd4           ",
"                    X-7iddddddddddddddy%          ",
"                      .-6pddddddddddddd1          ",
"                        X=6pdddddddddddw+         ",
"                          X=6pddddddddds>         ",
"                            .=6pddddddddqo        ",
"                              .=6iddddddp-        ",
"                                .=6iddddd6.       ",
"                                  .=5idddu&       ",
"                                     =6idd2       ",
"                                       =5ir@      ",
"                                         =5:      ",
"                                           +      ",
"                                                  ",
"                                                  ",
"                                                  ",
"                                                  ",
"                                                  ",
"                                                  "
};
