/* XPM */
static char *b4c0307ddd6f4402dd0922276341043fHLqiNKEAR9iLQlpl[] = {
/* columns rows colors chars-per-pixel */
"50 50 75 1 ",
"  c None",
". c #3274D3",
"X c #3375D3",
"o c #3376D3",
"O c #3476D3",
"+ c #3476D4",
"@ c #3779D6",
"# c #377AD6",
"$ c #3B7DD9",
"% c #3B7ED9",
"& c #004EFF",
"* c #004FFF",
"= c #014FFF",
"- c #024FFF",
"; c #0150FF",
": c #0251FE",
"> c #0351FE",
", c #0250FF",
"< c #0351FF",
"1 c #0452FF",
"2 c #0552FF",
"3 c #0652FF",
"4 c #0653FF",
"5 c #0754FF",
"6 c #0957FD",
"7 c #0A57FD",
"8 c #0855FE",
"9 c #0955FF",
"0 c #0A56FF",
"q c #0A58FC",
"w c #0B58FC",
"e c #1661F9",
"r c #1762F9",
"t c #1460FA",
"y c #1561FA",
"u c #1B66F9",
"i c #1E67FA",
"p c #206AF7",
"a c #216BF7",
"s c #226BF7",
"d c #226CF6",
"f c #236CF6",
"g c #246EF6",
"h c #226EF9",
"j c #256FF9",
"k c #2972F5",
"l c #2A72F4",
"z c #2B73F4",
"x c #2A72F5",
"c c #2C74F4",
"v c #2D74F4",
"b c #2D75F4",
"n c #3E81DC",
"m c #3880F1",
"M c #3D84F2",
"N c #4083DD",
"B c #4286DF",
"V c #4487E0",
"C c #468AE2",
"Z c #488CE3",
"A c #498EE5",
"S c #4B8FE6",
"D c #4E93E9",
"F c #5297EB",
"G c #5297EC",
"H c #559AEE",
"J c #559BEE",
"K c #569CEF",
"L c #569DEF",
"P c #579DEF",
"I c #589BEC",
"U c #589DEF",
"Y c #599EEF",
"T c #5A9EEF",
"R c #5DA0F0",
/* pixels */
"                                                  ",
"                                                  ",
"                                                  ",
"                                                  ",
"                                                  ",
"                                                  ",
"                                                  ",
"                                                  ",
"                                                  ",
"                                                  ",
"                                                  ",
"                                                  ",
"                                                  ",
"                                                  ",
"                 I$XXXXXCC+XXXX$J                 ",
"                 PBXXXXNJJnXXXXBT                 ",
"                YLS+XX$GJLG$..+SLT                ",
"               RPJF#.#DPKKLD#.#FKKR               ",
"               TLJJn+SJPKKKKS+nJKKY               ",
"              TJKPPZVJPPKKKKPVZPKLJY              ",
"              jjhhhgmMMMMMMMmmghhhhj              ",
"              1&&&&&pcckckckcp<&&&&1              ",
"               1&&<<tcccccccct&<&<1               ",
"                <&&&6kcccccckq&&&1                ",
"                6<&<1hccccccf<&&<6                ",
"                 5&&&tcccccct<&<1                 ",
"                  1&&6kcccck6<&1                  ",
"                   <&<fccccf<&<                   ",
"                   6&&rcccct&<6                   ",
"                    1&wzcckq&1                    ",
"                     11gccf<<                     ",
"                      &rbbr&                      ",
"                      5qkzw5                      ",
"                       6gp6                       ",
"                        ui                        ",
"                        ii                        ",
"                                                  ",
"                                                  ",
"                                                  ",
"                                                  ",
"                                                  ",
"                                                  ",
"                                                  ",
"                                                  ",
"                                                  ",
"                                                  ",
"                                                  ",
"                                                  ",
"                                                  ",
"                                                  "
};
