/* XPM */
static char *right1673532549[] = {
/* columns rows colors chars-per-pixel */
"50 50 38 1 ",
"  c black",
". c gray2",
"X c gray3",
"o c #0C0C0C",
"O c gray8",
"+ c #191919",
"@ c #1E1E1E",
"# c #252525",
"$ c #2A2A2A",
"% c #2F2F2F",
"& c #3F3F3F",
"* c gray25",
"= c gray27",
"- c #464646",
"; c gray35",
": c #606060",
"> c gray45",
", c #747474",
"< c gray49",
"1 c gray52",
"2 c #989898",
"3 c gray64",
"4 c #A4A4A4",
"5 c #A9A9A9",
"6 c #AEAEAE",
"7 c gray70",
"8 c #B4B4B4",
"9 c #BBBBBB",
"0 c gray80",
"q c gray82",
"w c gray86",
"e c gray89",
"r c #E7E7E7",
"t c gray91",
"y c #EFEFEF",
"u c gray94",
"i c #F9F9F9",
"p c white",
/* pixels */
"                                                  ",
"                                                  ",
"                                                  ",
"                                                  ",
"                                                  ",
"                                                  ",
"      +                                           ",
"      ;3*                                         ",
"      @wy4*                                       ",
"       1ppu4*                                     ",
"       %tpppy4*.                                  ",
"       .3pppppu4*X                                ",
"        =uppppppu4*X                              ",
"        o9ppppppppu5*X                            ",
"         :ppppppppppu4=X                          ",
"         +qpppppppppppu4=X                        ",
"          <pppppppppppppu5=X                      ",
"          $rppppppppppppppu4=.                    ",
"           2ppppppppppppppppu5=X                  ",
"           &upppppppppppppppppu5=X                ",
"           X8pppppppppppppppppppu5=X              ",
"            ;ippppppppppppppppppppu5=X            ",
"            O0ppppppppppppppppppppppu6=X          ",
"             >ppppppppppppppppppppppppu5=         ",
"             #epppppppppppppppppppppppppu6&       ",
"             #wpppppppppppppppppppppppppu6&       ",
"             ,ppppppppppppppppppppppppu6=X        ",
"            O0ppppppppppppppppppppppu5=X          ",
"            ;ippppppppppppppppppppu5=X            ",
"           X7pppppppppppppppppppu5=X              ",
"           &ypppppppppppppppppu5=X                ",
"           2ppppppppppppppppu5=X                  ",
"          $eppppppppppppppy5=.                    ",
"          <pppppppppppppu5*.                      ",
"         +qpppppppppppu5=                         ",
"         :ipppppppppy4=.                          ",
"        o9ppppppppu5*                             ",
"        =uppppppy5*X                              ",
"       .3pppppy4*X                                ",
"       %rpppy4*                                   ",
"       1ppu4*                                     ",
"      @wy4*.                                      ",
"      ;4*.                                        ",
"      +                                           ",
"                                                  ",
"                                                  ",
"                                                  ",
"                                                  ",
"                                                  ",
"                                                  "
};
