/* XPM */
static char *upp1673532527[] = {
/* columns rows colors chars-per-pixel */
"50 50 40 1 ",
"  c black",
". c #070707",
"X c #090909",
"o c #0C0C0C",
"O c gray8",
"+ c #191919",
"@ c #1D1D1D",
"# c gray14",
"$ c gray16",
"% c #2F2F2F",
"& c #3F3F3F",
"* c #434343",
"= c gray27",
"- c #464646",
"; c #585858",
": c gray35",
"> c #606060",
", c gray45",
"< c #747474",
"1 c #7C7C7C",
"2 c #848484",
"3 c gray52",
"4 c gray60",
"5 c #A0A0A0",
"6 c gray65",
"7 c gray67",
"8 c gray70",
"9 c #BBBBBB",
"0 c #CBCBCB",
"q c gray80",
"w c gray82",
"e c #DADADA",
"r c gray86",
"t c gray89",
"y c #E7E7E7",
"u c #EFEFEF",
"i c #F3F3F3",
"p c #F4F4F4",
"a c #FBFBFB",
"s c white",
/* pixels */
"                                                  ",
"                                                  ",
"                                                  ",
"                                                  ",
"                                                  ",
"                                                  ",
"                                                  ",
"                        &&                        ",
"                        77X                       ",
"                       =ip=                       ",
"                      .7ss7.                      ",
"                      =ussi=                      ",
"                     X7ssss7X                     ",
"                     =issssu=                     ",
"                    .7ssssss7X                    ",
"                    =ussssssi=                    ",
"                   X6ssssssss6X                   ",
"                   *issssssssi=                   ",
"                  X7ssssssssss7.                  ",
"                  *ussssssssssi*                  ",
"                 .7ssssssssssss6.                 ",
"                 =ussssssssssssi=                 ",
"                .6ssssssssssssss6.                ",
"                *issssssssssssssi*                ",
"               .6ssssssssssssssss6                ",
"               *ussssssssssssssssu*               ",
"              .6ssssssssssssssssss6.              ",
"              *issssssssssssssssssi=              ",
"             .6ssssssssssssssssssss6              ",
"             *issssssssssssssssssssu=             ",
"            .6ssssssssssssssssssssss6X            ",
"            *issssssssssssssssssssssu*            ",
"           .6ssssssssssssssssssssssss6.           ",
"           *ussssssssssssssssssssssssu*           ",
"          .6ssssssssssssssssssssssssss6           ",
"          *usssssssssssatessssssssssssu&          ",
"          6ssssssssssaq<##,0assssssssss6          ",
"         *ussssssssi8:O    O:8issssssssu*         ",
"         6ssssssst4&X        X&4tsssssss6.        ",
"        &ussssaw1%              $1qsssssu&        ",
"        6sssp9>+                  +>9psss5.       ",
"       *usy5=o                      o=4ysi*       ",
"       5e3%.                          .%3e5       ",
"      +:@                                @:+      ",
"                                                  ",
"                                                  ",
"                                                  ",
"                                                  ",
"                                                  ",
"                                                  "
};
