/* XPM */
static char *pixil_frame_0_12_1673271167[] = {
/* columns rows colors chars-per-pixel */
"50 50 2 1 ",
"  c black",
". c #00B7EF",
/* pixels */
"                                                  ",
"                                                  ",
"                                                  ",
"                                                  ",
"                                                  ",
"                                                  ",
"                                                  ",
"                                                  ",
"                                                  ",
"                .................                 ",
"              .....................               ",
"          ............................            ",
"          ............................            ",
"          ............................            ",
"          ............................            ",
"          ............................            ",
"            ........................              ",
"            ........................              ",
"             ......................               ",
"             .....................                ",
"              ....................                ",
"               ..................                 ",
"               .................                  ",
"                ................                  ",
"                ...............                   ",
"                 ..............                   ",
"                 .............                    ",
"                  ...........                     ",
"                   ..........                     ",
"                   .........                      ",
"                    .......                       ",
"                    .......                       ",
"                     .....                        ",
"                     .....                        ",
"                      ...                         ",
"                                                  ",
"                                                  ",
"                                                  ",
"                                                  ",
"                                                  ",
"                                                  ",
"                                                  ",
"                                                  ",
"                                                  ",
"                                                  ",
"                                                  ",
"                                                  ",
"                                                  ",
"                                                  ",
"                                                  "
};
