/* XPM */
static char *pixil_frame_0_10_1673268919[] = {
/* columns rows colors chars-per-pixel */
"50 50 2 1 ",
"  c black",
". c #EEEEEE",
/* pixels */
"..................................................",
"..................................................",
"..                                              ..",
"..                                              ..",
"..                                              ..",
"..                                              ..",
"..                                              ..",
"..                                              ..",
"..                                              ..",
"..                                              ..",
"..                                              ..",
"..                                              ..",
"..                                              ..",
"..                                              ..",
"..                                              ..",
"..                                              ..",
"..                                              ..",
"..                                              ..",
"..                                              ..",
"..                                              ..",
"..                                              ..",
"..                                              ..",
"..                                              ..",
"..                                              ..",
"..                                              ..",
"..                                              ..",
"..                                              ..",
"..                                              ..",
"..                                              ..",
"..                                              ..",
"..                                              ..",
"..                                              ..",
"..                                              ..",
"..                                              ..",
"..                                              ..",
"..                                              ..",
"..                                              ..",
"..                                              ..",
"..                                              ..",
"..                                              ..",
"..                                              ..",
"..                                              ..",
"..                                              ..",
"..                                              ..",
"..                                              ..",
"..                                              ..",
"..                                              ..",
"..                                              ..",
"..................................................",
".................................................."
};
