/* XPM */
static char *_634d0d0b98544909e74a753f5c8c0daX8jLx7eu94zDCDqr[] = {
/* columns rows colors chars-per-pixel */
"50 50 65 1 ",
"  c #392B1F",
". c #032F27",
"X c #0B2F26",
"o c #132E25",
"O c #1B2F26",
"+ c #262C22",
"@ c #2B2D22",
"# c #332D22",
"$ c #392F23",
"% c #4C2A1D",
"& c #55291C",
"* c #58291C",
"= c #632B1D",
"- c #682819",
"; c #7A2617",
": c #722718",
"> c #7A2919",
", c #442F23",
"< c #5D2F22",
"1 c #652F21",
"2 c #6A2F21",
"3 c #702F21",
"4 c #653022",
"5 c #6A3021",
"6 c #773021",
"7 c #832615",
"8 c #8E2514",
"9 c #842818",
"0 c #8E2C1C",
"q c #922514",
"w c #992412",
"e c #972C1B",
"r c #9C2F1E",
"t c #91301F",
"y c #9E301F",
"u c #AE230F",
"i c #B0230F",
"p c #A52311",
"a c #AC2310",
"s c #A72917",
"d c #AD2916",
"f c #A72F1D",
"g c #B32512",
"h c #B92512",
"j c #A1301E",
"k c #AA301E",
"l c #B0301D",
"z c #853020",
"x c #C12713",
"c c #C52814",
"v c #CE2A16",
"b c #C22E1A",
"n c #D32A16",
"m c #DB2C17",
"M c #C1301D",
"N c #CA301C",
"B c #D1301C",
"V c #DE301B",
"C c #E02D17",
"Z c #E32E18",
"A c #EA2F19",
"S c #F12F19",
"D c #E6301A",
"F c #ED301A",
"G c #F1301A",
/* pixels */
"...............................................X..",
"%%%%%%%$.,4%%%%%%%#.,1%%%%%%%%%oO4<,%%%%%%%#.,2,%%",
"aaaaaau7.tAgaaaaau;XyAgaauaapup#$Dcaaaaaaaa;XyAgaa",
"aaaaauu7X0Zgpaaaai;.yZaaapaauuu@$Vcaaapaaai;.yCapa",
"xxhgaua7XtAcxcxhaa;XrAcxxxchaaa@$Vnxxxxchau;XrAcxx",
"DAZgppu;XzFDDDDBpa;XyADDDDDZgpp@$VDDDDDDvpp;XeAAAZ",
",,,# ##+.@,,,,,$##+.@,,,,,,,  #XX,,,,,,,$##+.@,,,,",
".O#+++++@++@o.@#+++++++++.o#+@++@+++@o.##@++++++++",
".1Vdpppppppp&oMvppppppppqo4Zgppwppppp&oMvppppppppp",
".2Ahpaaaapaa&oNnpaaaaaaawo5Ahaaaaapaa&oNnaaaaaaaaa",
".2Axgghhggaa&oNmhghgggaawX2Ahghghgaaa&obnhgggggaaa",
".2SAAAAAAxag&oNFAAAAAmgawo2SFAAAAAcaa*oBAAAAAAmgaa",
".#3666663=&&@X23366666*&%X$66666661&*+X26366663&%*",
"oXoXoX..oooXXooXXoX.XOXoXoXXXoX..oXoooXXoXoX.XooXo",
"qqqqq8+@bsqqqqqqqq-.9lq8qqqqqq8@@bs8qqqqqqq-.zbqqq",
"aaaaaa#$Dcaaaaaauu;XfZgaauaaaau@$Acaaaaaaag;XyZgaa",
"gaauap@$Dcaagaaaaa;XyAaaagaaaaa@$Vcaaaagaaa;XyCgaa",
"Cmmhaa#$DDZVmmZvai;.jSZmmZZmhaa#$AAVCCmZvag;XySCCC",
"kkf9;:++jkkkkkke;;*X3kkkkkkj7;:++fkfkkkke;;*.3kkkk",
"X.XX.X..X.XX.XXX.X...XXXX.XX.X....XXXX.X.X.X.XXXXX",
".,r>-:::::::$o90::::::::-X,r>::::::::$Xz0:::::::::",
".2Ahuuuaagau*oNmuiauaaaiwO5Ahiauauaii*oBmaauaaaaaa",
".2Ahuupaaaaa&oNnaupuaaaawo5Ahuaaapaaa&oNnuaaaaaaaa",
".2Amvnnnnhai&oNAnnnvncaawo5Anvnnnnhai*oNZnnvnncaaa",
".<BBBBBBBdqw%olBBBBBBNwq7X<vBBBBBBdww%okBBBnBBNwww",
".XOOOOOOOoooX.oOOOOOOOooo.XOOOOOOOoooX.OOOOOOOOooo",
"%%%%%%oO1&&,%%%%%% .,2%%%%%%%%,oo1<%%%%%,%%#.,1%,%",
"aaaaup#$Dcaaaaagau;XrZgauuuuauu#$Axaaaaaiia;XfZgaa",
"pupuua@$Dxaauupuaa;XjAaaaaaaaap@$Vcsaaaaaaa;.yZaaa",
"xxxapp##Dnhxhxxhaa;XjDxxxxhxaap#$Dnxxxhxhaa;XyAcxx",
"DDZgpp@#VDDDDDAvpa:XyDDDDDAmgup@$VDAAZAAvpa;.yAAZZ",
",,,###Xo,,,,,,,$#@+.@,,,,,,$ @ XX$,,,,,,$#@+.@,,,,",
".o$@++@+++++o.@$++@+@++++.O$@+@++++++o.##+++@+++++",
".2Dapppppppp&oMvppppppppqo1mgpppppppa%obvppppppppp",
".2Dhaaaaaaaa<oNnaaauaaaawo2Ahaaaaaaaa&oNnapaaaaaaa",
".5Dxggghhaaa%oNmggggggaawo5Ahgghgggaa&oNmhhgghgaaa",
".2GAAAFAAcui&ONAAAAAAmiuwo2SAAAAAAcaa*oNSAAAAAVgaa",
".$6366666=%&+X26666663*&%.$6636663*<*@X23663363&&%",
"XXoXoX..ooXoXoXXXXX.oooXXoXXoXX..oooXooXoXXX.Xoooo",
"qqqqq8@@bsqqqq8wqq-.zbq8w8qqqqq+#Ms8qqq8qqw-.zbq8q",
"aaaaaa@$Acaaaaaaau;XrAguaaaaaaa#$Zcaaaaaaai;XrAgaa",
"aaauaa@$Zcagaaaguu;.rZgagagaaap@$Acugagaaaa;XrAaag",
"CCmhaa@$DAmmZmZvgi;XfSCCmCCmhaa#$DAmmCZCnag;.fACCC",
"kkk9;:+@jkkkkkke;;*.2kkkkkkf7;:++ykkkkkke;;*.3kkkk",
"XXX..X..X.XXX.XX.X..X.XXX.XX..X..X.XXX.XX.X..XXXX.",
".,y>:::::::: Xz0::::::::-X,r>:::::::: Xz0:::::::::",
".2Ahaaaaaaag*oNmaaaaaaauwo2Ahaaaaadag&oNmaaaaaaaaa",
".2Ahaaaaaaaa&oNnaaaaaaaawo2Ahaaaaaaaa&oNnaaaaaaaaa",
".2Fnnvnvvhaa&oNZvnnvncaawo2Annvnnvhaa&oNAvvvvncaaa",
".2FDFFFFFcaa<obAAAFFFZdawo2AFAFFFAcaa&oNGDFFFFCdaa"
};
