/* XPM */
static char *d18676198c714ec3ae43685b8899bc7eT0LP70B6sY9lz2nN[] = {
/* columns rows colors chars-per-pixel */
"50 50 15 1 ",
"  c #494949",
". c gray29",
"X c gray30",
"o c #505050",
"O c #555555",
"+ c #5A5A5A",
"@ c gray36",
"# c gray39",
"$ c gray40",
"% c DimGray",
"& c #6F6F6F",
"* c gray44",
"= c #777777",
"- c gray48",
"; c #7B7B7B",
/* pixels */
"..................................................",
"o+OOOOOXOOoOOOOOXOoXX+OOOOOOXOOOOOoOOOOXX++XOOXOOO",
"+-&%%%%%%%%%%%%%%%%oO-*%%%%%%%%%%%%%%%$Oo=-$%%%%%%",
"+-&%%%%%%%%%%%%%%%%XO-*%%%%%%%%%%%%%%%%oo-&%%%%%%%",
"+-*%%%%%%%%%%%%%%%$XO-*%%%%%%%%%%%%%%%%Oo==%%%%%%%",
"+-&%%%%%%%%%%%%%%%%oO-*$%%%%%%%%%%%%%%$oo=*%%%%%%%",
"+-******&&&&&&&&**&oO==&&&&&&&*&&&&&*&&oo==&&&&&*&",
"+-----------------=oO=-----------------+o=--------",
"o+@++++@+@+@+@+@+++XX+@++++@+@+@+@+@+@+XX+++@+@+++",
"XXXXXXXXX.XXXXXXXXXXXXXXXXX.X..XXXXXXXXXXXXXXXXXX.",
"$$$$$$$$$XO=&#$$$$$$$$$$$$$$$oo=&#$$$$$$$$$#$$$$$O",
"$%%%%%%%$XO-*%%%%%%%%%%%%%%%%oo==%%%%%$%%%%%%%%%%O",
"%%%%%%%%$X+-&%%%%%%%%%%%%%%%%oO=*%%%%%%%%%%%%%%%%O",
"%%%%%%%%%XO=*%%%%%%%%%%%%%%%%oo=*$%%%%%%%%%%%%%%%O",
"%%&%&%%%%X+-*%&%%%%&%%%%&%%%%oO=*&&%&%%%&%%%%%%%%O",
"---==---=X+----=---=---------Oo---==----=--------+",
"%%%%%%%%$Xo$%%%%%%%%%%%%%%%%%oo%%%%%%%%%%%%%%%%%%O",
"..........X................X.....X................",
"O%#@@@@#@#@#@@@##@@Xo%$@@#@@@@@@@@@@@@@oX$$@@##@@#",
"@-&%%&%%%%%%%&%%%%%oO-*%%%%%&%%&%%&%&%%Oo==%%%%%%%",
"+-*%%%%%%%%%%%%%%%$XO-*&%%%%%%%%%%%%%%%Oo=*%%%%%%%",
"+-&%%%%%%%%%%%%%%%%oO-*%%%%%%%%%%%%%%%%oo==%%%%%%%",
"+-&%$%%%%%%%%%%%%%%oO=*%%%%%%$%%%%%$%%%Oo=*%%%%$%$",
"+-====*=*=*==*=**=*oO-=*=*=*===*=*===**Oo--*=*====",
"O===*==*==*=======*oo====*==*==*==*====Oo*======*=",
".XXoooXooooXXXXoXoo.XXXXoooXoooooooXXXo..XXXXXXXXo",
"OOOOOOOOoXX+OOOOOOOOOOOOOOOOOXX+OOOOOOOOOOOOOOOOOX",
"%%%%%%%%$X+-*%%%%%%%%%%%%%%%%oo-=%%%%%%%%%%%%%%%%O",
"%%%%%%%%$X+-*%%%%%%%%%%%%%%%$oO=*%%%%%%%%%%%%%%%%O",
"%%%%%%%%$XO-*%%%%%%%%%%%%%%%%oo=*%%%%%%%%%%%%%%%%O",
"%%%%%%%%$X+-*%%%%%%%%%%%%%%%%oO-*%%%%%%%%%%%%%%%%O",
"&&&&&&**&oO-*&&&&&&&&&&&&&&**oo==&&&&&&&&&**&&&&&+",
"--------=o+------------------Oo------------------+",
"+@@++++@+XX++++++++@@+++@++@+XX+++@+@++@@++@@++@+X",
"XXXXXXXXXXXXXXXXXXX..oXXXXXXXXX.X.XX.XX..XXXXXXXXX",
"O=%$$$$$$#$$$$$$$$$XO*&$$$$$$$$$$$$$$$$Oo**$$$$$$$",
"@-*%%%%%%%%%$%%%%%$oO-*%$%%%%%%%%%%%%%%oX=*%$%%%%%",
"+-&%%%%%%%%%%%%%%%%XO-*%%%%%%%%%%%%%%%%Oo==%%%%%%%",
"+-*$%%%%%%%%%%%%$%%oO-*%%%%%%%%%%$%%%%%oo==%%%%%%%",
"+-*&%&%%&%%&%%&%&%%XO=*&%&%%&%%&%&%&%%%Oo=*&%%&%*%",
"+--------=----=---=OO------------------Oo---=--=--",
"O%%%%%%%%%%%%%%%%%$Xo$%%%%$%$%%%$%%%$%%OX$%%%%%%%%",
".............X.....X..................X..X........",
"@@#@@@@@+XO$$@@@@#@@@#@@@@#@@Xo$$@@#@@@@@@@#@#@@@X",
"&%%%%%%&%X+-*%%%%%%%&%%%%&%%%oO=*%%%%&%%%%%%%%%&%O",
"%%%%%%%%$XO-&%%%%%%%%%%%%%%%%oo-=%%%%%%%%%%%%%%%%O",
"%%%%%%%%$XO-*%%%%%%%%%%%%%%%%oo=*%%%%%%%%%%%%%%%%O",
"%%%%%%%%%X+-*%%%%%%%%%%%%%%%%oO=*%%%%%%%%%%%%%%%%O",
"=*-&==&=&o+-=*-&==&=*=*==*=**OO=-=*=*-&==&=*=*-&=+",
"--------=oO------------------Oo------------------+"
};
